<mxfile host="app.diagrams.net" agent="Mozilla/5.0 (Windows NT 10.0; Win64; x64) AppleWebKit/537.36 (KHTML, like Gecko) Chrome/127.0.0.0 Safari/537.36" version="24.7.7">
  <diagram name="Page-1" id="SZrrsdKde2k3x_Rb1zPI">
    <mxGraphModel dx="612" dy="958" grid="0" gridSize="10" guides="1" tooltips="1" connect="1" arrows="1" fold="1" page="0" pageScale="1" pageWidth="850" pageHeight="1100" math="0" shadow="0">
      <root>
        <mxCell id="0" />
        <mxCell id="1" parent="0" />
        <mxCell id="lGID9LslnfB9hoiXh0to-1" value="" style="shape=image;verticalLabelPosition=bottom;labelBackgroundColor=default;verticalAlign=top;aspect=fixed;imageAspect=0;image=data:image/png,iVBORw0KGgoAAAANSUhEUgAAAMgAAAFJCAYAAADew2JXAAAAAXNSR0IArs4c6QAAAARnQU1BAACxjwv8YQUAAAAJcEhZcwAADsMAAA7DAcdvqGQAAF1ESURBVHhe7d0J3L/VmD/we8YsDDOjmBlLtiHSRtKekKW9RCWtSqVUTChKprKltFjalJKiXdoURZFKq2globTHZBnLMMvzf97n3+fndPs+j/B9vs/9fX735/U6r3Pus93nXOe6znW2+9x/MTGJpkePHgPxlw/aPXr0GIBeQHr0mAa9gPToMQ16AenRYxr0AtKjxzToBaRHj2nQC0iPHtOgF5AePabBUDcK//d//7f5y7/8y0aWf/EXf1HM//3f/5Uw7oBbnMQT5/7772/OPvvs5qtf/Wpz8803N9/5zneaX/3qV81f/dVflXjy7tFNaPN/+Id/aJ72tKc1z3ve85qXvvSlzZprrtk87nGPm8cPEJ6on7W950c84hHFr2sYqoAkKzaDABAb6tdxf//7328+9KEPNUcddVQh6mqrrdYsu+yyzb/+67+WdP/93/9diMzU+fToDrTj//zP/zTf+973mssuu6w5//zzmwsvvLDZcccdm7e//e3NU5/61HnCwGbCI7UAcXcNQz9qgqH1BjUzp5cIAYTRGKecckrz5je/udl2222bLbfcsnn2s5/dPPKRj2z+9m//tmiOOo8aU/n3mB1oW4aQ/Nd//Vfz61//uvnud7/bHHvssc3RRx/dHHPMMc0666zTLLDAAg+m+F0b1m3ZyXYlIMPEpIBMTArEg08TxV0bmCTexHbbbUcwJ04++eSJu+++e2KSsBOTw6gShx031M/x69Ed1G2WdvrlL385ceedd06ceOKJpZ132223idtuu21e/Bjx8UxXMVQBqQmk0ty1/2QPMzE5pJqYVL2FaJOqeOJnP/vZQ4gVd23iL33y7NEdpI3STrX7gQcemDjzzDMfIiTaEcThZroqJEMd9E3m9xDVyUwSofjDz3/+86JuzznnnOaMM85oVlpppeYxj3lMCZ8kZokD3PVz0M9Duom0dUz84B//8R+bl73sZWU4vf/++zennnpq85//+Z+FLxJH+3dx/gFDLVUqPNkjPIRYgACXX35585WvfKXZeeedC9HMNaCOGyHLc+0mNBG2Ht2BNqkZnp124v67v/u7svjyvve9r/niF7/YfOMb3yj8ULf1fCUgQQjAvuuuu5rTTjutWWKJJZrXvva1zaMf/egSJ+G1dojNP5qEX0yP7qFuF+3Wxt///d83m2++efPP//zPZQRx7733PhjyOx7oImZEbGtmV3GrWtdcc01z++23N6985SubhRZa6Pe0QS0Ig2yo851pKNt0jVaHK3vqU7tj4scE7bh1HM+Q5yDx4o6ZbWiT9j4Gv3ZbWe5de+21yx7XDTfcMC98VG36p2DoGiSmbjyNeskllzTPetazmhe84AXz/KNWa0LVJgLBdAnKH0ZuM2wNz4YeNcRPmqCdth1HHu33tPPoEtqjgbiVe8UVV2wWXHDB5sorr5xX57ruXcOMaJCaINw//vGPmyuuuKLsczz5yU+exzTCQpza3XXUZQ6jps7sCH4dL3H51f7gOWmCxEn8PIsXd/IdB6SsT3rSk5pnPvOZzTe/+c3mgQceeDD0d7ToGoYqIHVjMmlMQ6vHP/7xRTjCCAgiLG7Ic5ehjATcEMHRGCcBbI6GAX7605+WhQirdPfdd99DGBoMRRh+P/rRj5qrrrqqrO55jpEmdCJUOphrr722MFTitIc0XUdd7qc//enFxhdolrp2EUMvGSIEIQhG+Zu/+ZtyNodfCJK4sbtMqCBltVy53nrrlVUZy5b8Gcct9tlnn+bVr351OVMW4WejRbQI3Hbbbc1mm23W3HHHHcW/FgyI0P3Hf/xHc+655zY/+9nPSto6j3FB6KN+Osu//uu/LgKvfurTVQyVI1UWEcIMaczf/OY3hSCWddvCUROoq4RK46bMbPXA3I7M0ASgnlZndATbbbddqZsDl45d0CzSiUMb8EcjWhXkd+edd5a52nnnnVfONN1zzz3FX5wtttiirAB5Dm3rMnUdyh3+cJyIFv7FL34xb37V1XoMVUDqSnIjSvwQxXM94Uw4wkGXBESZUq5BELb88suX5WuMbO+HEDD/8i//UsbaOgVMv8giizTf/va3SzpnlZZeeumiaYQ/6lGPKvsEhlGf+cxnmq233rpZa621mk033bQ5/fTTiyAZzr3uda9rfvCDH3S2E/lD0M4MOml3/BDBIPBdxVAFRIXDVAgBqfxPfvKTeQcZmQgHA10nVJD6/fa3vy0njjGteQhG/uEPf1iGDVbqxEMPArDGGmvMq5t6/tM//VMRCuFo4mDm1772tXLIzx6BOHvttVc5+k8jycPKj84F3WA64e0ilB10Cur3y1/+stSb6TKGKiCYQOWZVJybsDhygDgIxQ80chqcf5caPfUYhNp/4403LnMIjEwroMGSSy7Z3H333fPyIATqrn7cvp0gYJ7RiXCZs+y2227l6A2BIzyLLrpo2VAVJ6cOIDScqnxdhDpoa/UC9RkHIZ+RIVZsBEAQTJNG5Rd/zBJEuLqIlJlJHZTXcGmZZZYpzE9Ibr311rIiZdcY1JERP/UX1/DCokXo4pkmcvTfJqpl0G222aa56aabiiCJI246k5qO44SUG3SanpkuY+gCohHTkAGiYKYQSIOzMUvC499FpCHrxlRWwmDzUy/vAyG95AorrFBswq+XjCCwCYu5BlpIa5JKOMTfb7/9mmc84xllQo95zjzzzDLHMbwC8fmjk7zGDTXt0MFz3SnW4V3CjGiQQYgwtOMgVqDxxwUYOw1sWPTBD36w+da3vlXmJYZMOglCYu5lmdZ8gh/bUAyTG2rxIzA0hXkJGK4deuihZblYXgSt/thoHNFud50CtDvTrmGopQuDRyMgCgJoeATBCPwx1iBh6DqxAmU3GadFmOc85znNRhttVI7vP+EJTyiTbXMuzE1gdt9993KCWb3tmbzwhS8sAkFwLBETJMOrs846q1l44YXLErFvu3fZZZeymWZlDG28V1x0zdBtEB27iggJuuAHfBG/rtZj6N+kM2m4ZO1Ywa677lo+q3WiU+Nq8PrV3F0SkJStrkdAKDAtLaCRMTvG92z+IVxnQGvq/TGEzVKwR2IFx0qWfA2daCDCY/glzLCKhkp6ZSB03sXPUIvdVaYahJqeRxxxRPP5z3+++cAHPtAstthihV4ZYXQNQ9cgGTLVQye3XYCVHY0L6QGDLje2stUGM2N0jE2oMTOGf+xjH1vC9I7mJQRGuHg0icm3ODlyI9yuMoHgzjklNn9aKPMYgidf78/wBA3bwttVKHc0rr0hdDDnUn4062o9ht5lI0QNFdfQroIx9rbSEwhLI7fTdQnKFwPKGlM/q0tWZwhANKLnesVOPGF1HqFD/NvvquMnnD1OUAebno67u7mGRky9uoqhC4gKQ11pPcSLXvSiQhinemuiJL6epcvAkDF5hrqe3OqqTnUd2Xp9QpDnhNd+kHwh7xOW8EC6Qf5dhXqos69Krd45TQCpQ1frMaMaJBVHHJtnK6+8cvOFL3yh9CJBGCBuZhCmCxsFUpc2ar8IBlNDHH4pf50mbuHcg0xQu9vvmEk8HNoLj7BDNKmOL8JsLur4jNHE4osvXuIJezj5zxZmhMp1w8ZtzLnuuuuWVZuPf/zj8w74ASJp8JrA4DkEHDUG1WGQX9sd1GVWB4xSM3WYIoIByadt6rC4RykgbaTsMYOgjGlPboc6P/zhD5fJ+Mtf/vIyL0t9uoyRUtmKxSabbNIccsghzSc/+cl5y5eAgUKw6Qg/jlCvmhm6Ppz8Y5H2Sh0JRgSfrZ21+Ze//OWyimlZXPx0fhGkTmKygCPDJCEm7rnnnokDDzwQ90/ss88+E7fffnsJ++1vf1tscf6QGQco56QgFFM/Tw49yh1Q7HGpSxtph9qoW+za7R6sPfbYo7T3EUccMTE5cpgXhgYx/LqIR+w9iSIpI8Dk++YteVrq/MhHPlL2C+woWzalficJ9RBNwh17nKDMTKD8jPpFa45bnaaDuqobWKgwEffd+XHHHVeuHz3ooIOa17zmNWX5OnQJTRh+szlsnAoj/Q00AoYQ1O7FF1/cHHzwwUVA3HZi4kZwsgcgnvhMzUzjwFgptzqk3hgnHcA41KENdYB22flPaoSy6emEgWP/JuRf+tKXSgfolLJzZdo0eQTy4hf6dA0jFRBAyBCD26aRlQ2H9XxHgZDZKBOvZqhxYq5aKNiTw4iy4cfNwDjU4+FCnZwm8GHYpZdeWtr1He94RznGb3QAg9outOii9oCRCohX5XU1oTATleyjIQf+nD/ypZ59EwxmQwlzSSO9YVrX4ciIRndERK/qjJY6+KT2JS95SWcZ4uFCezli4zt5dXnKU55Sjuq7ucZZM/teThNoW9BuafO67Qf5dQkjH2JBe9iRIrSJpNcF8QcRtctIndg0pY1ChxMdSTHscIRknKFeTNo0I4JsiApLu/Fne44bxJGuyxj5EGt+hr0fFy/MBQGZXzDeer5HjxlGLyA9ekyDXkB69JgGvYD06DENegHp0WMa9ALSo8c06AWkR49p0AvIDKLeSOPOlpPNsrjj3zY9uoFeQGYIBCOCEIaPbSe53mFmZ/e5F45uoReQGQLGd7Tk2GOPbd761reW3xnURyxcIOfeKze6O9mcMIhwRfv0mD30AjJDwPC+b3GsxKem7oB6//vfX8J8guP5Yx/7WBEE55eibWpBqd09Zgf9WawZQoZMvotwU6J/g7v/KhfAuUzO8f4TTzyxfEAmbg73MWkWfj1mDz31ZxguzfN3KKBNMH+u3nzjG99YTvcSAs+9xugeegGZIUQT+IruFa94Rbn2iFZgCMNzn/vcZvXVVx/4bUu0T4/ZRy8gMwzC4GMpWiTfPvDbdttty5d2GVa10QtIN9B5Aal70/TA4wKMr7y0iDvB3LvLz5d3G2ywQZmTZI4hXrROhGac6vpwkParTY3pwmYLnRKQQQTK6g7EHhekvDSHH3v6QSe/N73pTeUivQhELRQx0nT9a7s/Buqdzi7u+rn27xI6tYqlKAQCMIxvue0lWPkJ4cTBQF1HXc6UXV3MO9z2QUBgHOoyLGhb9a2HlW2B4G953M3vXbh7oHMCAojkQoD999+//EvCBQ41DFXGAW6zb8OSrp90BuNSlz8Xg2gB6j8ozCXnboCfbXROQPwmQA9CQPx3w49W3JCRH2OKMy69bi3wQZvc41KXPxe0R4aMoQGbNkmbugmGdjUEdW1QF2jTqTkIghAO9mGHHVZuAXefL1VLcDL8GgfUguB2FkOJ3NICbUGZ64ggoAM7QhE6oI1LLQ488MBy0qALwgGd20kP4ZjzzjuvefGLX1w0SfyhK8SbDsqbMte9Z0BD5q6v+QFhs9iQ+QfauGfLaOF1r3td85vf/KbQpgvo3CoWTeH3CC5X8yPLXI+DkdL7jBMGDS0wAE05P0H7pf7cMTQLuK70U5/6VDm31qXVu87NQaxYuZHvjDPOKPf10h5tIGzXoS41Q4BnbjZhxwjjUJdhITSp6cG4ndFoYbPNNivXl+bXbF3AyEuBMaJawyghFOE4/vjjyyG+VVZZ5SHXjQI3o1fOfCRp26b+J6BnY1x2G/zq/Gokr6CtwQaF1/UB5U19gZtfeknvrfOAOr3w1CX+U5k2vEv62MnHc5s+KUebTuJ6ZjPxS7zErd1QPyePtF/ATRCsUrqf2Q3wWdqt52uziZFqkBAtBpOwERCh7Hs4vHfSSSeVnWZEyiE+8ULQNBRwxx/EayONginkl7hJCykTpFw1zBmygICZ5FG7GW7gTnpxuNvv8Rw/kNZz+92D3HmXuKEdJD9h4vLnV+eRsjHC0ES98ty2gTvgZiLgEDrGtONDwsL4SU97nHbaaeXozb333ltunkzdxJ9tjFyDpNJpKM/clvhM0px+NbTiH2ZOHHaYsM6H0UgaO/5taJjkAbVwBMIhDCaNOAxtlvckHyZpxOfOc/LOe5Jn6swob00DcRIP4h+TdPFP3onPDgMKD8SBpPGOhGNEz4kTG8StyxtIyz9l9VyHB+104kPSM/aE/LfygAMOKKcNavp2ASOfg4QwCFDbbnS3iWaIZSx65plnljNMNotq5gSNWhdbHglrEzb5M8mDn5vjNc6znvWsZuGFF35IvLj9191G5Y033liGf6961avKL+T8z+QHP/hB8/Wvf71ZZpllSsPLy+7vIoss8nvvjZudMCaMGabwZaG51wUXXDDv1nR1tetu0WK99dYrm2o333xzKUcYqX5HjLDpkPgQW5raTxyo47ah7JZntZdhsfqLz6RNIM8JA/8T8T2M37OZgzjUqQwM2uggZxvTU3EGEAKF4IhmYubXB0B7gP9M+BuuoU2IxtSqN3YaU5g4QcIhROfH/eMf/7i57rrriu25ZgBlsqqyzz77NPfdd1+zxhprlP9c+DXDkUceWYaCTuLmp//KT4jyY1LvaJuU27vY6U2582519WkuYVt11VWbtdZaq1lzzTWLcPitgKHQPffc03zlK18pacJwqXPew0DyFZ44/OKGpGfC0Hlm6vJB/GrbosoSSyzRLLDAAvPiJy/wnPfWYd/97nebiy66qJxR8/sE4UyXMNJfsEGIhZDAtmu64447ls9QV1hhhdLA/qPhtKse2td41157bdll/exnP1uY0WROg2AmTKVnNXfxo0jzGIafNHp2vdEtt9xSvvDz4dIJJ5xQPoHVO9NcGF65AMNjwpNPPrlsXBEQ/7ww/CMofiWGWW+99dYSXy/4nve8p2g8Y2jv/dznPjfvn+B6RmU0CVU+ZVAmjBWGYOtR/XXLBulWW21VThB47/Of//zCQASIpqX9lEmdTj311Oa2224r71BmS6VoJK8nPvGJZRiHfldddVX5sY06Gc56v+EYbcXfxuyCCy5Y/vDl12lHHXVUyZvmVCcrS+iipz/00EOL9qTl0ATdHA1xShk9Q8cIS9yxGXQ5++yzS8e4xx57lLYMhKNH0swmRiquiBWT3k9DXn311UVjrL322iWesEyoGcQ3RtXjaDCXHRi3IrKhDsYzNPGMEQ4//PDSmLQA+ScQCI6RMLzem/ARogzfatAQF154YbP99tuXIVjK6yMnDIIJ/NbYe2kgezXGz/IULxcy+HJQWpoQE2T/453vfGfpOdWxjTCGdLGBW7k9Y3C2OnsXGhEcK0F33HFHqZO/CBuKoQOh+Pd///cyZLRiRAsSGmXFpJ7lbUldJyKteIZ86khotRONK/5PfvKTQiPv0ybq+e53v7vkn7LWGPTsPQRzo402Kpo49YytbF3ASAd5Kh8DCIWJMbRxqJ6qzazAT6Obm/iPIcbG7PnPBmPs69tvjWSuoAFoGb1ioAc239Abaxjhduo1UIZfGgZTyd84Pys8jHI4javnvemmm0p59bibbrpp0R6GQoTorLPOKh9IvfnNby7MS+NZpclHU96vl15nnXXm7fMkf/H16oZr6Y1pN7+me/rTn17Sqy/mQjdzJNqAsPA3LKQ5hJsryU+ngmZbbrllKaebVD796U8XzeSdhkcukJDeRp3efM899yzn3wgWjbfUUksVrf7Upz61ede73lXyveaaa+YN6ZRhENA0ApJ2R1+CTQDRM3ESHrsLGKkGqZmfm4o2rqdmTUATHoJlRQbBMAiG0YjUuiFFmFejrbTSSqVBMYBxOwbWiOmlkycBkC9tkyFS3SBpqDCrZ8AEIIw/m4Ay3kGT6Unlr5xhZoK96KKLFiE0NHFKwPBEWN6TsoG80cTwjM0Qdr22+mJ2PTkNt9pqqxUBlTZDJkNHnQ1t5r2APuYzhkD8CbG6K7c05jfKqQMxZNU5EDyahYbQ6dAgaExw/Z2YgBl26bCUSb2VIz1/6tOmLWO0YDhomOisnTh1PDQJvWcbIxWQMESYQiNR/3ovjZc4IbZ4AU1AOBLO1MyVMA1uCMIPkWkJbvExc4ARk0+QRsJEfiJqLpFhDcjH+N96PfCPsNQaSFn02GxMh8l33333skKnvnpwDAniS89ILx9/hTX+x4SMH5xiTuUXX49O851zzjmFmb1DD29+pLPZeeedy1zE0E6+BAszyx99MDTjWThNCMLQzHzJe0855ZTm+uuvL8NH8yVl8H29YSzNoi4ESBikHiBv0EbxA50I4VD/l7/85b9X/7rNu4CRlybEQig9ob0PQ42aUREJc2kwkIY7DcrWkPyko7KNwTEXzWDOgsHTuyce5uYWD8Rpw7v5v+xlLyuXvplrpGx6UvMSQyZlwHjCGEyiTEzqKI5hhPmGxQaMpefH8HV9IujywewRtuST94tH4B0Hpz18xquMaKnnd3bNUEs6GtZ8AQ2UO0vVwtAqQzvvCeRPC1twwMQWOLTPTjvtVFbr5LP00ksXwTDcUhYLAqAMII/Au2rjXQRKvoSN9gD+dbouYeSlQgxG73buuec2H/3oR8uQKUwgDDFNaIFbWJg8fmEwPREm1GBWiIxtjb31qML4G9PrdYURJkIjjDDpgQ310kjyNkzD0L4AtEJlrG1MjxnFV15x5YOZUzaMZ9KeoZYwjEibmDwTDvlYOKDlhMvHu8VP/cQVT9kZAo+xvAdd1IEgOW1A2EyoaSe0tHjhPcphRRDDKw8hpRkwvjhveMMbilZRvgxVuWkIQys0w8jmdcprWETz7bvvviV/mkW5Mbq0NHzoB+zUSTxQdvmKa74W/9S7ixipgIRoejIE1qOuv/76hVHS83KDialeC1FNOq0mZViC4Uy2NTxGMQ4Xz4Tv4IMPLpNXPahJKPfmm2/efOhDHypDEA3jPeYJGA6zGOOncRllMU53BAKDynfllVcuq0KYw3yChqNlxKVx5GXIYzhlTI8J5EVYc65MfOWxqZYlWPQQDzCoJWeCTKtKx7z2ta8t85f8JVfZaAZzCz08pnfHlnxoOKuB8jf5Rh/zBG4rUibxlqnRgqDJw5AS1MHSMo1hyZ2woPtb3vKWsty84YYblrjq8b73va90JPzR3hxRHTF9Tce0K39DajRVJ+ft0ta1YHUNI91JT29iBQejuCvKeDnjeAaxQDwN1mbcIOF6RkyCMaxkIbowjYbhEk9a7pRBfrGTX+2u0Q5Lfun5lLFOI27is8XTS9cMkTyFeRbGZkBYuxzeyz9DO3ETL88Bf7DHZOJOsF7/+tfPSwNs6UL/GvW7Q1Npa7e0iceWR/KsBQP40XY0EYEzVONXoy5/VzDSEiEWohAQjE17aJwgBGoTmX8tRAlPQ5lE8sNA/PTMhEOc5JN8Y6fh8s4wrzDuxIXkA/yTnzyYpMn8Ich76np4FifviF/AP++Kmx2hDB2SJu+HlNMzk7R6emkTLi9lFSf5oVnyydAx71fG0Ek+eWfsxAV+oY+0AcHQKdoENfxVhoQnry5i5Kd5jaft2jpjZfccYUPQIIRLo4SA8efOM1u8uhqJz8YIhkOg4cMQea+08kkaGPTehPEDz/Ko3x0mhPh75k55GMxBC0DybUPe4qZ8oVE7rTipV54TBp656zoEyT9IXEA3edbhkLzETfzEUQ7ulFV4bHMXiyQZriU9yKNdtq7gobUfAazvm3/kzFVbOACR2w0D8Q9xuREWM2kcqAlvmJV5C2hwkC5MFoaWT9IFabS8J0yWMqTsiSc8cZOXOAnnJ7wuE7TfC+IxEOZnUu7AO1OvqZByQ12W2g15BmX0frSVXpx2Oeu6gbKFJtKBtPaI7LRbeTMvbEOcrmLoApKeD9pEJRzW6R1Oy43mg4DobVP7hwnr57pXDWNlDhLUaRKvNho3aSGM1Y4PbH7ShCkgaYS36xemgTqvQajfy9RlgTBVyhH/2g3cdZyY+CVO7LYJTfKceG0/yLN6x5/w2tPR5hYLPEfo6rRdxVAFJITRm4c5ECJCk8N7xqEIDOn5YSqi8av9p3p+uCYYFBaTcEMa5aeN9tprr7KqZQVJmHG13WDDBytM/Ow0H3300eXMV3tOEiG2xCsvy6hW4vI+CN34WQp3aNDybMoSJA37jzHTpRmEQXHa7kDZ1RkiQGjkHJoRg9W3mh610Efgu4ahCkigl0hDI5ReyJKufQ9HHvL9RcIBgeKebSgLwU3jMdkVt7suTBzCQEvZhLMXofyOhBhrO89EIDI8whipszQ77LBDmYdlMSHvCWPxswxrQYNg8K/pKrwrSL3Qpa6vstIezrTZFMzQMnUManfXMFSOVNGYGhrTfoOlRt85IBTiMYgVd1cIpRwaOm5QPuv3NrpoAEyrd+SnDjYQ7e84s4Tp7SfYOHRsxKTULrcjNdLJi5ahITw7sOkwo70Bxn6F07IEzH6G07SYTC9sD0WZ6mFdVxDhAOUz93AkxT6Os2LpJPADk7bnTrquYehdtoqG2dOLOFpt88v5IXOPQJwYxOoaUg8G7NtYYMjQidawAWdj0LDLcMkuuOEWTWJn2462k7FW7JyUpV3U1aYjYXKuy261jVHCtPHGG5dhnO9fbMrZxPQeJ5lXXHHFcsxEHhD6zjaUIbQi8BEEx1BsSD7nOc8pdVHv0JKddLV/1zB0rqxVv0ozdpjt2NptNVSJPxPCxt1FpHyGTYREj09jYHK7+FZmCAJmNyyy++w4is1LPajj93avaQfHYtRTD4tWjnv4cOttb3tbEQ671YZeNIhwWsTY3a62s1f5gjHl6hLC7NEe73jHO8oRewdR07aJw3DX/l3EUAUkwpGeDREcSDz//PPLuSBHNKAtRF1DBKJuPGXWC9oBNvfQs5tPOVJCK2JaTIE5MLHhJI1Cexge0SCOWWB4eWe8Tug8+8aCELlZEL0Ijrg2QdGN2+FAAqmX7iLd0CmC79CkEYO5R04SB8LF5YdH4tdFDFVAVDjqNc++OnMEhPbImZ+aWBAGbPvPFpQnDZhn0JgEhAax4em8l/kGYcC4vkER17cgTtcaYpiX0ACEyPcZ8ky+8nNC9hOf+EQRMMug5iuELjB0c+AwNJIf1HSebaROKY9hpl9fMwQcElbHi13TumsYuoAwehE2hvFdgQOC0R6Jw3QddRm5NSRGNydw8M5BRAsObCbfRqiryxV8Skxz2CTzBSN6gHwIByOeSbhVLQcJDbMIXDoM2iK9K1ta9IVR0tF7Y5QjZQJ+oCwE10KCYachJXokPFDvdrn5dRFDLRVCpKII4IMbajaEClMEaWAmjd4FpEw18uwUsKGRIZKenoAou16e4KABt0m3uYhv6a1eERYwtwAMhvlpIcMQR+nFczLX6piVMsb3KPIMbT1jQu/MUHam4R1toYCUK+C2QPFv//ZvRdjRqobyh46hcZsnuoYZKRlCGmIgkq/G8r1Hm+m6ikENH9sig6Vq35c7BKhxMSutYanWhNSzIZdPf7kdgScIvlUnPPzkRUAMQeRFoAiGFTEMhmY6FRN9S71AS1npcry+XcZRIozu/bXQEFgLMmDFzdxDnAjDWGKyAkPDJLEmJok0MdnwE5OTzoktt9xyYrLRJyZ72+I3LlAP5VUXxjNMzgce8ly7Ez80qN2ABp5//vOfT5x77rkTyy677MTXv/71iUktMS9ObEh6SD6DyjQKeFe7LDHKxE/97rvvPhI7ccIJJ0z86le/Kv4JH1cMXYNMEqMMAyxduohBT6rH1OtMvu/BWN1HesiUWb3S83NPMse8XjHx6vh1mLjSSmcFzFeKjvrTOib5aCMs8eOGPLMzFIkd/5mGd9Qm5VOOtOukIJQvOkHdaFrxUlZxxhFDPe6erJxNstHlqzPj8DAHhGBdhnrUjQs2B3MCoB4u1OSLUNXCgXEs0SY/foOYRv7oZH4TWiW/uPkTNvlBBK8uz0ygLmddnkAd3UDp9MB73/vesnOectXxZ7qcM4Ghfw9ikmaM7GZB8w/jaBg34mBGpGk3LEYOg/IXj43pMWz8g7jlFSMu/+QvXfwSFzxHKHL0JRCW+DONlCc2cDMEwQFUK1c+iPItvTJbxEAncVLWUZV3mBh6d+66GccLrFzZ9wghmXFByhrm96zB2Tlw125sYZil1g561rjlJZwJkme7txWXyXMEEvjHFp44M426PEE6BScI3Pdl1zz+tbaNGUcMVYPoXY097aLSHlYxoCbUOEB5GQ3NxhyYOEzSrkvtxw1xxwwKh/o5flD7Jw9GmZQjggh1uplEygDeqRzOkzm2TzhsdqJTHS9lrcs7Thhqqd3GZ9/DsZJaOMYNGj8Nyp1enx83m39MniF+7XqHadr+0tbpg+QTd97NHbuOM5MYVG7gZ1/HjSu+f4lwDBpqDko/DhiqBrEqY7OL9shQpM5+FI3ZFeg5U9/YGCfCBmgzDjRJuZWXIaxAe5h72MdxJEabiytc/VPX1HMc23+oAuIwnd3fqeAQ3/wCZ6wGwaaf4yXBONBkqrqAi7id2s0FHBGeehjYC8iDsBMMJqeIE4Kwh/iasUEYI0MONzi6gM4SeI79jxNdagZP3dTDiQKrlVbaaA1zUe7UPbxQpx8XDH2ZFzK8aC+J1vZcBxogLebIEMU3Iy6KNpnNEfBxoId6hE1SXs+pV5D6RCjGXThgqJN0QBTEwyD12n0YZn4BhsAcwFb/AFPVz+MCdYqwpH5p69iQeuOFYFzbfugCEuKkxwhh+I9rL/KnoF3/GmGucYIyxwBhUIfaCFPfCIbRA79x7AyCobZSmKEmZGyo3fMLBtEBxokWyqptMTp3TNAW9jwnXR133DAj3VgIlF5lnAn05yIMMhUNhMcAJqxNFzFVfeJfC0z8BsUfBwxVQGpC1ISp/ecXYG5DjdS7zeyeIxRQC0QtMF0Bpp+O8Ws31OG1/7hhRjRIj9+hZvSpmH7cmWguoxeQGQKG1+NGk9S9L0HJc1b9agjrBaYb6AVkhhEhIQRh+ghEhKQ93IIIWI/ZRd8CMwyMXh9Xh1pQ7IlEOGr/mB6zixnZSe/x/+HiOHdouYbU3bQEwOUN/Pm5CNulDS5oyNGMGpqm3qnuMXr0GmSGgLkdLfHHWDd8+KDIvb4+InPLiSPiLr7251jCMmje0Q+xZh8j1yB5HWZov7rNIOMMdTMB98Mg/xDx9aArfxxYdH2Po+LgtxBuficMERJpQ5u5JCRTtX2X232k1E/Dhzgmpw401n5zCZjbNzL+Sa6uhAIzsA2ddtlll3KPluFVBKGmxVzqMCB1S/3q5/h1DSMXEEgPgikwh783tXuVuQB18r2HC6lzBWfq6JnguGY0frQMQYpgzEV6hAbcMdDVuo5UQEIQTJALC6C9yjOXQFO4z9cN79ESbELjzrAc7ANx0Sd0CfPMJYQHIMICXa3rSOcgeRW7ZgTgxjhziSlSP0LgJ0LLLbdc6Qx0Di6ytrLlM1V1juao6z+XaAF1+wfq6Fn9688juoKRapAaNUPUBOOeKyb1UUfCsNVWWxXh2GabbYr2yFeFtRbhRhto5zfOxlem7NStbnumq8vZI9UgIU49Ic3NgyA8YeMOdVOfNLxnv0dwMbU/1/o2XV35Y5TEgTzPNaBHOoS40Ue9mS5qkJEPsfy8cv/99y9DC/sErqz0nz+38/lDk18BzAXY23DZAc1BEGwK+rsvIfFDHb9vE2aBgibxCS56uKvXMnA6k7kEN/7bF9p0003n1a/uELvYMYx8H8Tdrf5466cy4PVztceE9JTArsk9qN5zmR4777xz+WGp/zGiS4RDfbta51kRED3lRz7ykfKc189FplC3muHZNbkH1Xku08MczGjBMBPqOna1vrM+4EeYucgMoF56ybqOcee5jenC5gLMOdCkpkuX6zs3ZsQ9eswQegHp0WMa9ALSo8c06AWkR49p0AtIjx7ToBeQHj2mQS8gUyB7GDG1X+224RW/NgbFrzHIL0jYVKbHaNALyB8AZvTPk+985zvlU9nrrruu2Mydd97Z/PrXvy5ni9oMzCQ9k6MVdbifzjiOIv8IWkwdtz7MCOImvx4zi15ABiAMCg5T3n777c0iiyzSLLXUUs3zn//8Yrj9OObWW28t8XNalQmzZxNMGBMknj8CO9nrW3VfViYMpKuPYtTwPJe/xOwSegGZAnUPrQf3v/cbbrhhnrbIDyvPPffccnTGSVRH2fn7bx87QoHR5edgJqEIc7vR5PTTT2+WXXbZwvQ//elPS14xPs0VTxhtE38aJ7+46zGz6AVkADBkjmHny0eaAsN7xuxuJ3EZA2BYguPf8K94xSvKT3L8CtuwTJq77rqr2WOPPcoRd5/Yvv/97y9Cgtmd8HVxg99n+xE/oZFePJ/keq94bkXh//SnP73kZWjXY+bRC8g0ICj5x4V/8UVwaARCcdJJJ5V4Cy64YPkV8nHHHde8733va2677bbyI9PFF1+8zFN8TXj//fcXc8cdd5Sj77fccku54cRQDRzk++Y3v1kYX5rDDjusaBYCcc4555S8HZEXR34HH3xwKU+PmUUvIFOAltDLZx7gkgXX80Rg/Jfv2c9+dvnW3Pcb11xzTbn/ylzlqU99arP88ss3b3/728uwSh6PfexjiyC5xcQ3MU61+vbDxXJ5B+EzrDrooIOKIGy88cblh5+GbL6h8P2IvH0q4LsS2qzHzKIXkCkQ7WF4xfZh09lnn116fva6667brL766uXTWcKEyTGuWxK5V1111dLz0zQ0gXjmKfI966yz5s1xCJrhmTTe8YlPfKJomLe+9a1lSCaeIRphI1CMoZ3VL/Mc5esxc+gFZAAwHcbEzNyGPb521IO758rwiYYwb3D5gnmG3n+fffZpLrroovIXW8vA5513XrmowXWjO+ywQxkaXXrppc1+++3XXH311SV/huAQkhNPPLFoHN/MGFrx936a5z3veU9ZYpY3+5hjjimaS/oeM4deQKZBzcAQwfGJrGt7TMIxOtAQnt2eaBnYPGKttdYqfmeccUZzwQUXlPnGCiusUOYmWYWSPw3lClIrXFtvvXUZpiVcfibs8nF9kGGe2xppmmihHjOHXkCmgCEPgdCzY2DImJ+/ucSb3vSmsqKEYV/ykpeUf6Bvu+22hen9WH+nnXYqcwZDpcMPP7xZeumlmwUWWKB8d08byfvyyy8vcx1zmF133bXMY5ZccskyRNtrr72KRuGmUR7zmMcU4TFhN7yL4PaYOcz6J7ddhd45PbQLJSzFYnBzhgxrMK9VKcuvblD0fOONN5b6Pe5xjyuaxPBKepNuq1uEgiDRBm55F9+8hcaRFz/wDmlN5mkRm5VXXnllEQrCaV6TBYOUp+uwUocmb3nLWx706T56ARkAJIlwZIUJEw4iVeIKFzfMyp/xLDz7KrVftFTcTP3eOj47fnkO8s6uYxwFpB9iTQFMF4bV64chw8CeucO4YVLPMYP8kga4E4c7ebcZvk4PFgXEiekxc+gFZAqEGdto+0/FoLV/3AQtIFTQFgo2UwtEjfhFoKYqZ4/hoBeQAQjTYdS2dghjA3f9PBXECUMbakUA+LPzHgjT12WIHT951MLWY+bQC8gAhPHDkFAzKISJazMVEpalW0IQ5D1t430RjvhBXY6E95g5zIqA5ABgGKV2dxF67CBMGSFqu6dCzfB6/7jZ0rK9JxomSHj7HdlEHBcoq+XsaMj4db0OsyIgmfSyQ7CacF0AxowJwry1f/1cmxqpF5upmVvcCEiea1P7xZ34dbquQ/umY8xz6BHTRcyKgCBGekSEgto9F1Azbhg58wburjLETAENdAwRjHZb9wIyCUTIuaU81+7Yc8VAGMFzzRQYBtpp5qqBWoOk3YOuasKRbhTqQffee+9yxNt3E/FThHEbU/8hqEuEADBHXcdozHEZIv25UM83v/nN5aMwl1ere+iTjgN9OofJBhsp9ttvPxwyX5pHP/rRxX7MYx7ze2HziznkkEMKH0wKRTGTHWSxu4qRapD2q+reM2FzpUdNr6g+6sZ2WtfJXN99zG/flKNH2rZ9EiD+sbuEkQpIm2mAXQ9F5hrUz/KmI/LOoDnY6AIGY/D2OHyuAy3q9o7QMNxdpMfINQhT9xR5fYRmrghLTdbU+Uc/+lG5lMGXgH65FuaYX5AOEmo+iHB0kRYj5caaIeJu+8011PULTEYH+c91pM6MjjDurgoHjLy7DlGCPLf9xx11fdr1q93zE2o6tE1XMXcH/z16DAG9gPToMQ16AenRYxr0AtKjxzToBaRHj2nQC0iPHtNg5LeazE9wObXrfhzOdGVQbm131MTduq4S8lsFl8G58yrLndlQm8snDMYFfQvMEPQ77rhyqdwWW2xRrjk688wzy6bYKaecUm5ndw2Ou67ypR0jXW16zC56DTJDQFZH+d2c6JrSe++9t9wQT6uwXWrtutLPf/7z5XI4wlFvnKVZei0yu+ipP4PA6G5QpEEwPOEAwuHw4vbbb1+ERBhBYLgzxOox++gFZIYQDeBwor9NmXtkjkEQ/C9kgw02KNeKRmMQDGF1vB6zi74FZghhdEzv7l3zjTC+b0FoD3fvcvOPkESwenQD/RxkhhCyYnxzEb8vcAO8I+/+62F1y2/dTNrr+UedrrZ7zA56DTJDwOgYn02bPP7xj29e//rXlwm63yZY8s032ITAShZBikBIF2HpMXvoNcgMIQzO0BKY32/T3va2tzWHHnpo+WtUrT2AGzL3kLafh8wuRiogGOCAAw5o9t1334G9I2YIk4w7smI1Hfxr5A/FE2cuQdu/8Y1vLO66I+hqZzBSAfEq//Hzvz//CfGs92QzfW85t7HLLrs0K620UvlBaTrCtD87mrRLGPkQq/6BDiIxGYKwu0ikHn8+sNlmm21WjtwQlAhFeCC/uesaRtplI4QL1Fxa4OoXiEDQHiOW1R4jhHaul7RBe2v3dJBdxEgFJMRBqGiLECt2j/kDOssIhbbv6vB65BpEr1Ffgx/BqJc4e8xNEAJtrO1BJwn4oKujh1nRIPW1N0zQVSL1+PNBKJxBS6cYjcG/zQddwqwISHoSQCCmqyq2x/BQd4DaP88Rmi5i1rgyxKmFZhhCIl8Cx7YQkPeAYZwwiGC23XX62o9J+uRZu4N2urgDfjFBXS7gTt5tU4dJV9s1BuURP0i6UUHbuk2y7hyH1eYziZFrEONOR71DqAjHTKLNQIMYCtp+nmNqtP1qZgwGMWPCa/vhuNt51+422nHbEJY8ZxNp+1G0/5+DbovvnwEMgPhhCEiPVTNQ4iUuxF37iVc3ZPzZMWFO6RIWO+4gcSH5EqJB5W6nTR2SLjY/6ZNH/Or0/IWDdHH3GIw5KSBhipgw0C9+8YvyCezNN9/c/PrXv54Xfs899zQ33XRT85Of/KTEiz9mCrOG8RIem5E/k7hB3ss/7pp5A++98cYby+8Rbr311vK9esoX1O9s27VJmdtwo/xtt93WfPvb3y7xlEdZuHtMjTkpIGHYGMAIGHCVVVYpu/mOu2AkQz7M6a9HGDOMJl3NaHZ69fDxS5w6/zxz14hwMckj+0DgUodXvepVzfe///3m2muvLZ/p+p5dOCNPaQP5Jyzh7PjXcVI+AqcTYBIXstTaYzAesbd/oo0QF198cWn8NdZY40Gf4SM9Y5tp7ODroS+99NJyk8jTn/70sml51113Nffdd1+z2GKLlY+blE88mubOO+9sHve4x5V4likxsbj3339/YT7fd/z0pz8tvbMwJwXcWnLLLbeUfDGgI+7iPvDAA803vvGN5vbbby/x3WRiPkZwPS+11FLlF2U+011ggQVKOQitb0m8Rx6+QCRk3ulWlOTlHY985CNLXX3/Ls33vve9kofJsXAniH2k5QAkukR4Qp+ZhksrvH/55Zd/0Kf7mLMaJD10/Tcj7ic96UnNRhttVC5LuP766+cxCaYmWITITSPOC/nACcOed955hfENhTbccMPyqexrX/va5utf/3rzjne8o/nQhz5U4q+88srltOqnPvWpZplllmmWW265coMJZnRq95xzzmle+tKXlnzZZ5111ryhlPISmMMOO6ycUyOYPqrafffdS3wdykknnVSGSphemfgnr1NPPbUMIYWdfPLJ5aIIYdJfd911RQhPOOGE5jOf+UyhQ+pda6Yev485KSCQs156fggT6vk333zz8jUfBqQNMIse1pd+vtn42Mc+1qy44opFKDAiYaANnAAwRCEQ3/rWt0ocjG/j87TTTisCc8MNNxTtgyHPPvvsIiyGczTBrrvuWoZTykJYvEc8ZaQVaBPaivYgjOeff36z3nrrlfg0D5t2oJ1cBEGIkhfmp2UuuuiiIvg6AOXdZJNNipbhpmHEr5e/Iyg9BmPOUgfTYoowAhsz8BPmIoXPfe5zzRVXXFF6bj2vMEJhGENTiP/CF76wMOO5555bGHiFFVYoDByNhLmf//znl2EMBqSd5C1PxpCN/7LLLluEQx5OMxPWxRdfvISlfNFS0WbS//znP2/uuOOOcsnDTjvtVIZfL3jBC8pwz7yIwLOf8YxnFAEn6PIxnGPMbWgT5RTPe/MlY48/jDndfWAIjBchwXQZRmF8QyU9u5Ud8xHxaZRrrrmmxJMOAxu7Y1ZMhvncUILJxPHpLCNMfL06wcGIwmkG/uYM7373u8stJ9IbMoknv/TiKae8Fl544SJs5hFPfepTy3CNRpEnYX7Pe95T8mJWW221ItyE62Uve1mzzjrrNDvuuGMZ7xMqGuRRj3pUyT/1yrwjdo/BmC/0axivBsZYc801y9DpqKOOKkxHcAiCsTtgXD21ZeAMS7iBm9Hbh+EITd07Sx//L33pS80RRxxRhkjmEYZCmNX75A2ZTPMnULSFOYkyGMLttttuzWWXXVYWOvbbb795eV1yySVFM4XZDQmthhm+WYwwL1JP8x2IQPb4w5hzlAqTYDJuzBCTMNCzm4focTGcCbMhiuGTOcRnP/vZ0iObp5j0GlrJU3gNjMlffhgdw0ZgGBPnCB5B0ZNLY1JNuMTnL714wG0ecfjhh5d5DMGhkQzlaDOajhaiaeRlIcD8w+qUOc/RRx9d5j3SmdNkVYw2bAuHsvaYGnNOQNLgYYSM5wEzYn4MGD8rT+9///vLDYfG7AsttFCz1157lbkJ5lp99dXL8qQhDy1jEi4t4x16ZvlFGDEpQTHkYZtvYGJLyD43Ff7sZz+7LHUSSkJIQ8hP/soI4jzxiU9s9t9//5L3WmutVYZcLrteZJFFysoVYVlyySXL8rDymuPwtzxNKAgjzbX++uuXPOXtHcobOnH3mBqz+sntTKBueAzrmY0BMaxhh0m43pW/OYCJMJu/IQ5GspqlRxcHU2I2wmZS7AofvbH8CJUw6YRjdgJBG9Ee8tbby8fwjEDo+c1bhMtLGaNlvNuzsiiT9wnzPsLrXepieKUu3iUvwycCI+/szRBSfuYp8vQ+Nm3CBpqJAI4CW221VdGCb3nLWx706T7mnICAKqVaBAUT5BmjQnp9BsNB4jGJF2A2zBckP3byCRIG8jaEYmN472AC/kmfCXtdDv78lJfJcIxdI/kEdRmSf/ziZuRdp5tJjKOAzLkhVhCmwGzsmuHzHMZI3AgKcGNEWgLCmFCnS77iM2HqGvyEySPMHv+8m58wJvkkb2XgjmAl/7wTEhekheRXx/ceNr86TY/BmLMUCpNghLiDMGZQM1EYp7bDrNwYrE5f23HnfYnXZkjuxEm6mKB+jrsuV+1P84A863xrO2VJh5F4sXsMxqwIiOFK3ftpJO5hNlYYA+IOYwX82yb+4jJhKIhfG0krLO62Hzv1TR78g8SLu45Tu2Mg8WrNkviJE8R/UNgooO7mSWlnRmcTDd1V/H5rzyBCFEgjhVjMsCDvP8YkzVSMVZvEianjDHIH6l2HBXXcQQw8VZrarx5GTle++jnx2KOAd0WQwwfslKmrGKmABIgSE3SdUMNA6phOYn5EhKI2EZYuYlYEpFazAUJ1lUh/KlJHvbTekzvDrLlW1z8E9a21aLRd1+kwawICCNUGgs01U9fXcz2sacedq6buJGoTYekqRloyBMEsEYxaQMI87Llk0vipt2d25g3ziwkN0sY14t9FjHSjkIr1AeOFF17Y7LnnnoVQXm+Zst6EmwtIo6fXTB1rcrcZZS5Dx+Cz5q233rrc7h6gE6TD6BpG/vuDY445ppwv4kYcRzqcJXIEAxHnyv8wfEilwR09cXBw0UUXLcdbrr766nJ0HUPMT9C+6OHI/8Ybb1zaPyZadr4XkPQWNfjZYU4x5kqvmvqwaU51dHbKuSznrZyhmp9Qs9lUbd3Fth/pHERP0TY5U4Q4c0U4IPVRR8fTuWsmmd8QeoQmTO3HdBHdXT7o0aMD6AWkR49p0AtIjx7ToBeQHj2mQS8gPXpMg15AevSYBr2A9OgxDXoBmUHY98jmKHf2Qerj3fFvmx7dQC8gMwSCwdQMHzsbY8Jjt+P26AZGfqvJ/AJkdf3OF7/4xXLhtUuo3VXlCh53U7ne1L1YrkB1eV19IV2ahPDYce4xe+ipP0PA3A4kOqT3wQ9+sJgDDjighLkK1LNb4h1mFC/DLumC2t1jdtBrkBkCsmJ6V5e+4Q1vKP/ocOmbiwtcMkcw3JvrWlOaBXI+KeDuhWR20WuQGUK0gVvjt9xyy+LnFC8/wuGQ5nbbbVduRaRBPEcYYvd91+yjF5AZAiZnfN/i9wS+B8HwDIFw9677dl032kYm7D1mH72AzDBoBpdQ0yL5SMrx92222aZcjt0eVkEEqe3fY/TovICEWca1R6UNXGS97rrrlh/hEBLDKv/wyAXaEIFgxGFLO5dQt2VM7R9wd6XunRKQEKq9JxB3nscFKTMt4uehvscmHP7+5Jdq9UdDtZshJNE4cwV1O2rjtHOQMOiKgHRqFUtRstyJOXzX7fcCrqfMBc7jAnVIPUJivyTYY489mgMPPLD8zoAgzE/A9OkAgB3a1EAz/2ux2jfb6JyABNx+M3bwwQeXDbcaeuOuw2UUDwfjUJdhYBA91H0qOvljcBf+p95JDaIHYZvMnnHGGc0rXvGKMl5PnHHoeVPOtl1jXOoyDKRdg0F08YOfCy64oPyg1D8Wu4DOjVkyFj/kkEPK78T88jh/d0LkcYGGT3m5Y7dvtp9foE1T79AjiL/h9Ic//OFm++23fzBk9tG5nXTFQUzGv8n9cTa3gmQOwt11hBGUmbs9f4rfONRlGAibpX0hHQjNQntob3dm5U9cXaBN5zSIHvbII49sVllllfK7LvdHIVYYrWPyPCVqJqiFQ/mzoz4/oV3ftGNoc8cddzSf/OQniwbJVVBdQOc0iB9W2jfw++OXv/zlRUBC3BR1HJhLWVNeNiGvn0E95hdBSZ2DmhZ+dHreeec1m266aVnp8wPTrtBm5BpEjxrVyqZOEYl2cEbJ4T2aY8UVVyxDq8RLmnFiqDRyesn6eZzqMWzUHYSO48477yz/pXfaOVfPpr1nGyPVIHWlvRaB2Ay1apLmt8gnnHBCs8EGGxS/jEcxVdLMz8w1rtD2dbvFTXsQDieeLfk+4QlPKHG1dzqW2cRIS5BKh8ljCIBJ2jnnnFPWxl/5ylfOE5wIR1d6lB5/GrRhPYfkhttuu605//zzyzcyzqx1SThgpKUI0zMRjvjbNX/9619fbn53iI9gDFrpqd09xgfaLW0ZY7555ZVXNjfccEM5m2a0kLCu/Nxz5GJaC0fcCPW1r32thK+66qrFJiDCghBXmh7jB51d2jPa49Zbb22+/OUvN1tssUXzjGc8o4TXbd4FjFRAVL5Wn5id8VuAf//3f28+/vGPl98DQFQthLjsXkDGE9ovbcdtQebyyy8v/07xvX7mKImjg+wCRq5BID0IgpikfeMb3yi9ydprr10Ig1ghVC8QcwvaXMd3yy23NJdccknz6le/unnOc54zLwy0eXhktjErQ6wYhLrrrruK5jj00EPLCka0RLQHpGdhh4g9xgvaLzCkvvjii8sh1DXWWOMhbdu19h2pgLSJgFDXX399GYfSHvwJBi0SgvJrD62422Yq/xh51PnUYfVzwJ34g0yNQeG1CQb5D/KrUYfV5eGuw4P2M6TuUIez6zwhcePXNskHBoXHP3nkOW0OtIf/VBKOJZdc8iFpITzQBYxUQGqCwfe+972yMfiRj3ykfG0XQjG1Bgn4D2q8NGrAL3bC23HznHixE1Y/MzXq9IkLtV/bP3m0w4L4T2emem97SDqVGYSEDcq7fp7OBHUedX0Dbre6fPWrXy2bwO4Dy9xDe8fuEkYuIAxCOI9Ee5x55pnN+uuvP6+RY+r4iMY40WtSd8899zyEKUz4br/99nIHFcQfvKtuBA2XxgvEt1Dwwx/+sCw333fffcWdMJAePMd4n/JI41mcxGujzqfOK4hfmExd7RGYm+Xsll6VPz/7RklvSZQ7z+zkA3lnniHuMCYa5ZmB0ClpHQOxmZf6MsKC5MkvGiDxgN93vvOd5gtf+EKz0korFe3RdYxUQBAuBCUcCOVw2lOe8pR5XwzWDQQhrsYyod9tt93KoTbMmQbCSO985zvLmrrnNEqEKEdW5GF3Xv6Jx4/51re+VfIlGG5DdOzBwUmNKn7yrMtpcWGzzTYrtyR6FyOv1DNlgOSR58SNHzekbA7v+SOsb9nvvffeEiYet0mtvYOkzw9BuaEub4y4ic9OOTxDaASJm7oHBPPUU08tZePPiBegrbLXSDiboPvew+fGTmlDaNVO1xWMVEAQScNgMtdxOqBmiU8j+Ye48DRoGxrDRpJvQxxm1KBpIMRtX92JkQiO8S6394qH6fWChncWCPTEsPLKKze77757Ger5HNY76nLE7X3yld4Vos985jPnNbDhgzy/+93vNt///vdLT8tfuU1IHaWJVhAGwtPbBuJ/+9vfLvYmm2xS6uD96svW+0rDeKezTJhP/upDywC3Xt+zsqq3DsDcz3uFKQtDEyadOt5///2lDtGQ4KI732o861nPKuUQTxnjZsdAXTdlj4ARjqWXXnpevC5jpAKCSHoZtw1+5Stfafbcc8+iPQIEhRBO/Jp5POstNUYaRBqG0GksgoBh3vGOd5S7p5773Oc2O++8cxmWiU9zGdItvPDC5UjLKaecUoZovkXwo3uMqYwEqYZ38LviiiuKUGASd+vyUy7v9/Xjq171qtLDO65/2GGHFSYlHE4mf+ADHyjvVS77PrRgyiwP5WP4E2p5iK/XxdTCdBA5o5byEOrLLrus2WGHHZrTTjut1EeYlcFjjz22DD8/+tGPlng25Fx7qkzKp6zKo3z+4S4dIZKXOrr18eijjy7vv/TSS5t99tmnxEP/tAfU5a/bMUZ89PI+n9LyC2p31zBSAQmhEPhLX/pSGT4gbA3EjVCEcOy4MRMG0XPqNRk9H6alhfSiGEPjYlq9pMNwBOPHP/5xEZa99967NPinP/3p0sB6/AUXXLDk75iLdDQIZqwbT++v9zv99NPLe1xEzfZewzI9PeZTJoxpAYKwKrN8xcW8GA1zuo4UPdS3fg+G1oN7l3G6NIY14qgr4XA7iqGdiS7hZ2N0ZQm9uKVVDxrEUR5lMHTTQRGuDFVf97rXNZ/61KcKXXQU7u3ipkVcnqCsaELg61PW0kYgavBHR9DGOh7L+crpK1FpGUCDrmKkAoKQV111Vdkg2nXXXR+iqtvg3wZCG79qYJrHrYQazw3pek75Y0TzB3HSw+20005FqDAiZgH5S+eYg6GDhs875YM59KYBP8K2+eabl+GBIR2m0sNjBEPF9773vUUreY9h2jrrrDNvKKicG264Yfm2Xr3dtqgswsIo3ASAgLiy1MlmJwssh5pfqQM4Eu5SA58E6O0JC6GB1FO9CQh4N1oxyqNsr3nNa0qPLi/0RwPxohF0QOpP4xhWeReapLzewR2020ueERzxdSq0VJZ16/R1Pl3DyAWE9tCbrL766oVQ/ELI2IOQMD3iu971rrIaQiMwznG5xlN+jOHGUkstVQiPCX3frnF9iONrxeOPP770hoYwFgo0FsbS82MMTMJPw9Zl0pvqgTW+MPljaO/U4xMQDI0J5X3RRReVuBhVvphROkJC2OQt3LvkwS2e3trk38YpLWXYZlKut1c2Zf3MZz5TPjCioQiHssiDsKZc/MXnp+7RssJpHbc9cnu/w4LC5H3MMceUfQqdDWPeAOKiEYTWddvFgLiM+prHGFK++MUvLgLCL/RLmbuKoQuIRlFp0AMhhIbnR6XTHi5QM7ZNvNgQdwjtOW6Ql0Y0JNKLx7bC5V0a3tFpl7OZSBv2bLXVVqX3lFbvffjhh5demqAZBlmXxxx6VgylDpiGqbHQQgsV5uevTBoY40nryLah2nHHHVfeq8dcYYUVSvkjBElruENg1UMYyEueaGQ4ZW6EsRiCJo1VM2UkXITRPEvPnmVvRjiog3kGzQjeE0a0pG3Y6Z3KbPJsWJrhKiE3VCR8vuy0FE9g0CYaGKQPlD2mbkN1/tznPleEcYkllijPgfCuY6gCEsbSEAwGCIMghp7eHoOxNaYSRohC6LYw1BAmz+SXPIG/RteAwmkVQzFCiBEt32IUqziulDGXMGHFCHppPbpyYxCMiNFAueSXd5tgmojfeOONhZFoH3Mb8b3/aU97WsnX8Mgq3UEHHVTykZ7mU2ZuTEaboBfwB7SgPQx1fFUpH0a+NIm5C5oy0i6yyCLNW9/61qIxQV11QFadrKbR1ik/o54Y1Pui0XQYhqtve9vbSn2FmaOpo+8zXOCmYyB40qa95Jfyc6dtQru0jQ6KIBsxuMBbuDDGu+SF9qFB1zBUAVFRFVdpBtga1BjakRKH06h6BIUIEWKHcMCPAX7chAqjYzb5IiqCC8Ow/GkTk1FDBh9fWUrWexkCYQjv3mijjUqeu+yyS5mHmNwSKvkpR0zqAOomb+N2cwLMZshlCAKEXk+8+OKLl2MzhkNWgjAqpgqzgmdziDCL93DTBHprDEt4QwPv5bfXXnsVYbAKmKGWuhlqEVT1NvQkUOZh8iWMhBdt0M67dR6uVDIp937zMKtc6oaOyy23XKGROpurYGy9P8FTzpQ7jK2M3lXTjL848pSXPKI9xBEW1O6uYaif3IZYKpxK80MQS5wa0dLuYostNi8uIrM9xy1+XSx5eda7G35gThNTBBem5zScMNzBTBjCxWPC9JAaFKPQFpjEHEhji0tgMDkBwUSYJ5rEBFW5MGLKYA5iU1FcaYXp3Qmv4YphiTwwuPqY69AIhInAJn89K22jXNKCd9Jy/PTe3snoTLzXhFwaddWzG17Ki2Cqm3TctDT6ECJDSx2DYRk6SK8e6HDzzTcXf/kQKjTQWRASdURXtOanjuKimzox6qd8Qd12DE2NRoZYVq+Urw5PezNtoekKhiog6VnaRNPjWbXynblVoMwHhNVEChArqP2lSf5t/+RTI+Vovyt5JL/Eqf1rpFET1n4XBhanLre44iSv5J10bPGFs+v31vFqd/1uxnM0MJN3BIkzVf7ygjq9Nkz8PEOeoY4fG9h5h7z9Ys6pXV+JGp6KmzpDnZ5/FzHUUqloDETlmujpPe0A600RqCZWm8jALyYIERO/TiOf+rlOK12dNibp6rT8PQfJw9AENDyBSBzh8p4qHcg7+UtbPwdJG392nW/80wnVdfIsTt6ZNOy63rHFZ+TlOXlCwqRvl5VfysLUeUGevZO2cyzIZQy0Xf3+lJ07z13FUEsWoiEiYCbLk1Z4LHtStzWRg7hrQjM16nzrtIib9wbiheiEFOp3MOLUaeIfd22Ll94WEjfp8wz82iZhkHxChyBx6nLFrt8FyXdQmZJn/c64E6cWiNotz9AzBmqbqcsFdT3C+OZSdszNydr3XKWOnhO/zqNLmFHR1YCWO622LLvssmU8WxOqRggWd1A3+KB0whlhsROPrQEwQRvC8s64QfwwHj/PYL7jmREe/7wr6duo8wbpamZIPvzEq/NLusRhe3fiJB/xhPFn4p94MMid+O0ycSesjgvtMgZ1XPOwN7/5zc3b3/72Mjeq48F0eXYNQxUQlUTsEMSKipUSBwGn+5PrIPCPyXM7bTBVPCYT7IQFdZzaHzxPF95GHa9t5DMIGD2CGEwXHx5OmRIHBsXlrt9bu+t400H71kyfMkfIrBxaHLEaZkjdFhDx2/V8uO8eNYY6SU9WemyMac/B6o2exMqV8DZhenQf2i1G+9UapkZW22gNG5F+W2FBRrpB8ccBQ+XWmoh2qq3bO5tks6tW4T3GC23G1r78tHXalRssyIBjJYbU446hd+cIh2h2r21i2YjL8Ydx7EF6/H/m13btISFEMIwa7JNsu+225ZQ04choIQI1jhiqgBAMBqF8N+AAoSU+hE2P02P8oN3aRnsymN8zAbFaCQ5X6hT5jzuGKiAEgTnqqKPKUQ9HqO2eQgjaY/yQtgvDx51nwmHu4ZSEw5o5Ewd1vHHE0Ocgjif4k6vzNzYHIxTjTKQeD4W2JBRGC9rXcRcnjgmGkxI6SRur4y4cMFQBoW59nulDIXOPetc8gtJjPDGI0bU3QXEQ1Hc2Dn96FpewwLi3+9DPYlnezZ9pDa+ijoP5TVCmIu+40kF9GOXX+fkOxyltwmHlktA47OgApjhOMtAo/McRQy21D5Ec+3bEID1Ij99toM1FmHv42Mo3HxH6cRWGQRiqBvF9to+E7H1EQDBHCJaeZ35AetqaWfSm+SZinGih3MqqLuyU23zT9x4+D3b834jBZiGNUdc9dR2X+tYYqoDkUgDLvFPBgcX5AT67HQT1T9i40GKquoDvVny67BPnCAfUHUAvIA/Cdx+QY+7mI/XwYoivGiugAebQcbjZw1eB4zYErZm7ZnhzDbev+BCMcDDaX9uDeWlb84wThiogIDsGUSz1hVAQlTs/gFCgA4YJk/hiz5d+hiZW+MaFYdKmkDLX7Ry3MM+p77gLBwydY8MYiJOxaEytTeY6whRhnNAAwjx57jrSbnU96voFiad+oI4g3rhi6AISYtRECTHHmVB/LOr6tutfu8cBdflT7lpIakNIIhhGD/Ebl86gjaEKCEIgSNQq1Hbc8xtS7zAJOtU06jqUVdnTvnW5+UdYoA5PunHGUAWkJlLsmmDzKzBWjdAjTMeEkfIc00Uof4ZRdfvGbWjd9svzuGHoAlITJr1k7T+/ID1rjZo2beaPsCRdO+1sQ1tGKIK6bZnpwscVQxWQHr9DzehhkDbTJ6xmrJqZxpmx5gp6AZkhYG6GEGTSWgtIhCJao0adtsfsoheQGQLmDoMTEAxfCwV4FqceWkUwmPaQpcfo0bfADAOT52rRIIwfIWgLDAOxe8wehr6T3uN3cIO6C6kdMXH5NFK749YdvI6Ju33QMQ0flmXPAMSLJrEi1GP20GuQGYRLpt2a7o9Un/jEJ8ql2bSEi6t9GuAyPZ8nu2ybfzRL0H7uMXp0SoO0i9KeqKaHDQbF7xLMPfwTxa8GwBWczmG5Gd3xcOF+g+CffbUGAXVjRq1B2vSe7hm6RvNho3NdVBqAXbvbNmPsXk9wY7oA5cA8bpR0DadrcAgHrWB4Bf6d6LcD+Y1DXRcYhQbJ++r3DkLClbFelftD6cYdnROQ9EhpDHbdS3l2nFojZVhSN5I0XUDKZO7hZ59hduVTH+V383l+lAO+p0g4xH+mkbK20fbzrB7Rakmn3HMVnRMQDBImCfO3md5wJCeF22FhxNlGXX4/rXGJXm4a5L/ddtsV7VGXP8MsaUYJ76yFsm0gcWo/9eCn3HMVnZ+DhIHSOGy9L/9BDCUsn7XOJpRPuTCRHtY/zf3UU5k9+yHnc5/73HmXG0QjctdoP88kpmOFlKOOE7ewUZZzlOikBgmx8y00k8Zge57q2+5oltk2UPew5iKGVISDNvG5bX3zR+oQ4Q8G5T1M413eyYByMAmLoCs3k7A6/lxG5zRIGgOj140FGC5I3Nqva6gZXTn9P9C325Z+/fcvdauZrP08SuTd05WBYAhLPHXsh1gjgqKkOBoA8dML+ymLP8X6TbL/jvhBpMZyk4ab/TJxh/bO9WzA58ZWrfxA05KulSubhL7bty9ij8TPM5WbNlTm/ObNXEUnMSqE2cHFG37w6f3K5dNg5fINvfL778cyyyzTLLXUUmWDU7oud1J/Ljo5B4lwsPW6rpb5+Mc/XoYpbmz0OwWXBOSC5DAWdKWxUv6grlOeA/6g7LV7NpGyZsVKJ+QPtzoql06wt99++/JLbD/onKuYFQEJE2gAr2fXDAO0gd8H+xGkHstvhE1qXTPjeIaeLo0XyKsrAtIma+oa1PWNP78wZpseo0a7rDQdTejiCb/i9gtpm6B+F73vvvs266677u/RP3UJZrtOfwo6IyA19FbHHHNM8+53v7vZfffdmxe96EXlZ5CEosfooY1itBUhoE1uvPHGIiSO0ejIXFxNq6d9YdwFRKVHjkkCTkxqiGLXht/kcGnikEMOIbQTxx9//MTkOH5e3MlxcXH3GC3SNrG1Q9wPPPDAxGRnVtrryCOPLPH5J36e4x43jFSD1K/ibmsQmuPCCy9s1l577ebkk08uajvHMJhJIhe7K8Oo+QXoHqQN0waeDb1yBamf6Dh7JjxtBnkeN4xUQGpieW0YnjHR/sEPflDmGSbk9gzEyXJvHbfHaNEWkLQfpD0c4ffznDe96U3ltHLOmE1qjxKfGUeMtNQhFOKGwCGcpcVTTjmlWWWVVcoxDEiYBkr8HrOHdgelTSI8ltt1agsttFBzwgknlEm98Gzc1kI2TpiVIRabiQBYc7e3scQSS5R/TfiFAoIibgibuNBrkdGCFoDQPbY2bLdTjve78Jqw0CKERRxm3DBSDRJEQBignp1N8uvgVVddtfiFmIkDGqF+7jEa6JyYaJC0AXc6rsRZaaWVyuHMSy65pPxIR1xCMo7CASMXEAQLYbkZn6RecMEF5a+4nuseqz7GkEaaaaRcQZ7jVz8P8q/hOYL9cEzSTOceZAZhurA/BW3at/MXThje8pa3lPbU8an7OHdsIxWQECmEDoGtgtx0003NiiuuOI/IdWPofTzHjAJpVMJqc+y73/1uMYaCjo3kKEjq0DbSmVc5UmKIkbhtZqnfk7Rtpmo/s/XOvnfPWL82w0ZNd3Y6KvYgzaAdjQi067hqjmCkAoKgEA2BePwyxPKHqi4gDIEJfS/+3ve+txynYBZZZJHms5/9bDlnVTNkbUc4zj333GbnnXcuwpRw+ab+oP6e886aNjUiCIlDWC2DE1bPMeLEjBK1oNrU1eHxU6YI1DhiVjRIBEWviHD8HXzzdV2XgPkMF+69997mJz/5SSmnH1VarTn11FPL0FBd1IMwiW+5OsxteGhnWRhGEY/geMY8NdMTogxJ+IVWnqUVN4cy5b/YYos1V111VTlM6Nm7mNB2lFB+Wl+ZlTcnHtzqAnV9xg2zIiARCg2f564dI9HQBMCa/gYbbFAORyqzlZkDDzywnEESruxuJnHxwgILLFCExwpO/iDFzpeENtGc7nV5wzbbbFOETnrvcNYMDZyS/eQnP1mYi7DRVk7/SuMkrXcph2MeNC6h7BIioE7+qjfhVd60/dhhsuAjwyTTzTOTwjHPvvzyy1FvYrJnfTDm7EPZJhl4YlIYStn23XffickxdQlz1EJZxTn55JMn1l9//YmLL7544vrrr5/YcccdJ5ZbbrmJu+++e+Lss8+e2HDDDScm5yETl112WclnstefmJw7TKy11loTO+yww8SkcEy88IUvnDjllFMmJrXTxJe//OWJww47bOLqq6+e+PznPz+x+eabT3zhC1+YmBS6EmeS8Yr75ptvLvndeeedpSzoGBMajxJpS2ZS05WyXXfddfOOB426PMPC6PXxJCbf+6Drd9ok7q5AWfTaW2+9dVmyNJ/Ib9P22GOPMlQy3JkU7rK5qTc37LEHsOaaaxYNIC6jJ9Xjm4+YwzzhCU8ov0124M/QZJKBiqYxxLTM7YtDedEq7s/yX0NH/c2BnGzOIgY/wyq9dN7FBOha03qm4B2TAjDv/dGemXu0yzVOGPkQq91gCBu13BUippzKZWjlgrfjjjuuueGGG8rQykdbxx9/fHPfffcVZvATfcfwxTccu+iii8pxcIyMgc05DMc+9rGPlT0C9SRUhlaGWYZUp512WhEkm6TuypKvVaBJbVLykOZ5z3temaeEht///vfnzW1gEH1HBeXzbmVJeWKPq3DASAVkEKH46QGNWbtESJNmE/KDDz64aAsfaTkntuSSSzZbbLFFuSURAwj7wAc+UNb9MfYVV1zRHHvssUUAaJEwtC8GfWD0xS9+sWgkcU866aSiFeS59957l7Q+yT3jjDPKR0l2pcUVj/2Zz3ymCJH3Ej5As6noNl3YTCIdHiGfTaEdBkauQdpATMyolyUo6XXE1TuGwKMmsnJhaqdUJ+cSxQ+zEYjzzjuvDL+U1+ULloIJ0PLLL18+BTZ8sv8hD2eUGN+gH3HEEeWeLLvN7uUlMCb0H/rQh8oKFU0ln8c97nHlfffff395j9tQpPFuK1fKgWbQpk2EYtQ0y3sjHFBru3HFrGiQuhEJgSGEIQgDg1SzFR1xRwXv9s34AQccUHr2jTbaqOw7PPnJTy69uMvgfNloSCXepptuWuwPfvCDzWqrrVbmKxhanTC/1Sl5GYrJZ3KCXozfQhvGbbLJJkVA/JSfMNEszqZhMidj119//TJn4ZZnGI+Qhilnkxm1WdpVvUEHo3zKNa6CMmuHFWvYVFpvvfXK0MImE2JrdAIRAsev7qFmCvX79NTmHFdeeeW8uYCJskm5PQ7P5hLmJuYTGJgwYHr7J7QARpfWs8m+/C0Xr7zyykVD3H333WWy/8ADDxQBRAPhlnDlazhnedgchB8t4925a4s79GIrU82wM43QC7SXMluouPjii8tCgvBRlWXYmJXvQcBrw+wmm7vuumshqv0BTInQiR/iptFnWkiUbSqyeLewlAXqhk85oR03z+A5DM2vzsNz4kHC2Az6sNtpvYef57wzYTMN5cg7fYKrIzj00EOLxoRRlmWYmJUhFnCHqHpHvamxPWhkS6hp7DDLqAjsPe2yBsqrPClb7RfDP8wLiZd5AyRePWys08fEn5td04Wpy8EN4o0SKXfqbFHBcrVh5rhj5ALSbkwwzDDBPf3005vrr7++hIXYNer0M4n2e+vGjzDEP2ingXb8Gm2/PCdNkDrX8UODWjBhUNxRwTsJr0UHy9xW8czV6vKNI2Z1DpLGZBur77nnnsXfak/d0GHOMMBMw7vqMmYuxOZvPpE4KU/c9XOb0dWDX1v4hSW/pBGnnn/VSPy8q7aTT54TNpPI+yxrW6aGgw46qIwM6rKo07hh1r8ojJ/exxKmK35M7pZbbrmy1l8z1KgbHGqG5a7LzVYe7gyV4lfHhdRDvAhY0sYWp65f0gbJM4KTcG5IPm3Uec4EvNMqo4UGG532bCxkqCfk/TNdjpnASEUagWLajU8YrNI4CEg924lOj13D81RmWEgZAwzp2Tu4QfkTh3+eudni1Yw8iKkTN+mE1aaGOPGPezqI83CQcjA12n5TxSG0hMOVqoTDhRuEIzRLvHHFSDXIw4E9AydiaZMTTzyxWXTRRectp4IGaUMVhDPcf4h5evwO6BX6BaFj3JDnGtrCBq9lcBdtrL766s3+++//YOjv0tR5jxs6xUkIanPp6KOPLqsg7uG11m9+opeqG6kmfnpVfhnq9PjzMJVgEIpoDWfRDKvsxbhPwHEZ8WOCdh7jhEdMVmrvB92dAGIabq2zzjplmdAOM6a3np5Go74jFKDBxIl/jz8OoWXoGURb8+c2T7Szb0PUHWaGU04DfPjDH2722WefMufQDokvX+05KO9xQaeGWHVRNAZt4lCfw39HHnlkUeEudjCBJzDOOCG8RtEg0vcC8sejZt60AZvJXMLJYt/AX3vtteVsmj0rQ2FDK0dktEEELRu9yYdf/Y5xQicFBDFrN4L7DYLVLSdc/SfEYb+c9cl/xrkJ1rg2xmygbv7Qvaafrxx1PmjrqL6FFJcy+FbFF47oHk0ToQjaeY8jOjdJ79GjS+jHIz16TImm+X+ywlc32B/+VgAAAABJRU5ErkJggg==;" vertex="1" parent="1">
          <mxGeometry x="-100" y="-110" width="200" height="329" as="geometry" />
        </mxCell>
        <mxCell id="lGID9LslnfB9hoiXh0to-4" value="" style="edgeStyle=orthogonalEdgeStyle;rounded=0;orthogonalLoop=1;jettySize=auto;html=1;" edge="1" parent="1" source="lGID9LslnfB9hoiXh0to-2" target="lGID9LslnfB9hoiXh0to-3">
          <mxGeometry relative="1" as="geometry" />
        </mxCell>
        <mxCell id="lGID9LslnfB9hoiXh0to-2" value="Input File MSD" style="shape=parallelogram;perimeter=parallelogramPerimeter;whiteSpace=wrap;html=1;fixedSize=1;" vertex="1" parent="1">
          <mxGeometry x="240" y="-40" width="120" height="40" as="geometry" />
        </mxCell>
        <mxCell id="lGID9LslnfB9hoiXh0to-6" value="" style="edgeStyle=orthogonalEdgeStyle;rounded=0;orthogonalLoop=1;jettySize=auto;html=1;" edge="1" parent="1" source="lGID9LslnfB9hoiXh0to-3" target="lGID9LslnfB9hoiXh0to-5">
          <mxGeometry relative="1" as="geometry" />
        </mxCell>
        <mxCell id="lGID9LslnfB9hoiXh0to-3" value="Ekstraksi Fitur" style="rounded=0;whiteSpace=wrap;html=1;" vertex="1" parent="1">
          <mxGeometry x="240" y="20" width="120" height="40.5" as="geometry" />
        </mxCell>
        <mxCell id="lGID9LslnfB9hoiXh0to-8" value="" style="edgeStyle=orthogonalEdgeStyle;rounded=0;orthogonalLoop=1;jettySize=auto;html=1;" edge="1" parent="1" source="lGID9LslnfB9hoiXh0to-5" target="lGID9LslnfB9hoiXh0to-7">
          <mxGeometry relative="1" as="geometry" />
        </mxCell>
        <mxCell id="lGID9LslnfB9hoiXh0to-5" value="Merge Fitur" style="rounded=0;whiteSpace=wrap;html=1;" vertex="1" parent="1">
          <mxGeometry x="240" y="80" width="120" height="40.5" as="geometry" />
        </mxCell>
        <mxCell id="lGID9LslnfB9hoiXh0to-13" value="" style="edgeStyle=orthogonalEdgeStyle;rounded=0;orthogonalLoop=1;jettySize=auto;html=1;" edge="1" parent="1" source="lGID9LslnfB9hoiXh0to-7" target="lGID9LslnfB9hoiXh0to-12">
          <mxGeometry relative="1" as="geometry" />
        </mxCell>
        <mxCell id="lGID9LslnfB9hoiXh0to-7" value="Hasil dan&amp;nbsp;&lt;div&gt;Akurasi&lt;/div&gt;" style="shape=parallelogram;perimeter=parallelogramPerimeter;whiteSpace=wrap;html=1;fixedSize=1;" vertex="1" parent="1">
          <mxGeometry x="240" y="140" width="120" height="40" as="geometry" />
        </mxCell>
        <mxCell id="lGID9LslnfB9hoiXh0to-11" style="edgeStyle=orthogonalEdgeStyle;rounded=0;orthogonalLoop=1;jettySize=auto;html=1;entryX=0.5;entryY=0;entryDx=0;entryDy=0;" edge="1" parent="1" source="lGID9LslnfB9hoiXh0to-9" target="lGID9LslnfB9hoiXh0to-2">
          <mxGeometry relative="1" as="geometry" />
        </mxCell>
        <mxCell id="lGID9LslnfB9hoiXh0to-9" value="Mulai" style="strokeWidth=1;html=1;shape=mxgraph.flowchart.terminator;whiteSpace=wrap;" vertex="1" parent="1">
          <mxGeometry x="255" y="-90" width="90" height="30" as="geometry" />
        </mxCell>
        <mxCell id="lGID9LslnfB9hoiXh0to-12" value="Selesai" style="strokeWidth=1;html=1;shape=mxgraph.flowchart.terminator;whiteSpace=wrap;" vertex="1" parent="1">
          <mxGeometry x="255" y="200" width="90" height="30" as="geometry" />
        </mxCell>
      </root>
    </mxGraphModel>
  </diagram>
</mxfile>
